<?xml version="1.0" standalone="no"?>
<!DOCTYPE svg PUBLIC "-//W3C//DTD SVG 20010904//EN"
 "http://www.w3.org/TR/2001/REC-SVG-20010904/DTD/svg10.dtd">
<svg version="1.0" xmlns="http://www.w3.org/2000/svg"
 width="243.000000pt" height="176.000000pt" viewBox="0 0 243.000000 176.000000"
 preserveAspectRatio="xMidYMid meet">

<g transform="translate(0.000000,176.000000) scale(0.100000,-0.100000)"
fill="#000000" stroke="none">
<path d="M1140 1360 c-52 -16 -113 -35 -136 -42 l-41 -13 40 -73 c46 -85 61
-89 23 -7 -18 39 -22 57 -13 60 62 20 210 55 215 50 3 -3 15 -35 27 -72 22
-66 45 -94 45 -53 0 26 -50 180 -59 179 -3 0 -49 -13 -101 -29z"/>
<path d="M1279 1358 c5 -14 18 -24 33 -26 28 -3 38 -35 38 -118 0 -28 5 -44
15 -48 13 -4 15 7 15 73 0 43 -3 93 -6 110 -6 30 -9 31 -55 31 -46 0 -48 -1
-40 -22z"/>
<path d="M1397 1319 c4 -12 14 -24 25 -26 22 -6 23 -36 3 -94 -15 -43 -14 -69
3 -69 10 0 52 134 52 167 0 15 -9 24 -31 32 -47 16 -58 14 -52 -10z"/>
<path d="M1104 1215 c-9 -14 -15 -27 -13 -29 2 -2 30 2 63 8 55 11 57 13 42
29 -26 26 -72 22 -92 -8z"/>
<path d="M1140 1177 c-59 -16 -106 -46 -150 -93 l-35 -38 39 28 c144 107 343
78 436 -62 34 -52 36 -59 14 -64 -12 -2 -5 -12 24 -35 l40 -33 16 47 c19 56
19 54 3 47 -8 -3 -20 11 -30 35 -55 124 -227 205 -357 168z"/>
<path d="M1190 870 l0 -230 25 0 25 0 0 230 0 230 -25 0 -25 0 0 -230z"/>
<path d="M1270 839 l0 -200 23 3 c22 3 22 4 25 201 l2 197 -25 0 -25 0 0 -201z"/>
<path d="M1110 842 l0 -169 25 -11 c20 -9 27 -9 31 1 2 7 3 87 2 177 l-3 165
-27 3 -28 3 0 -169z"/>
<path d="M1347 1003 c-4 -3 -7 -82 -7 -175 0 -176 2 -184 43 -154 15 12 17 33
17 175 l0 161 -23 0 c-13 0 -27 -3 -30 -7z"/>
<path d="M1040 848 c0 -115 2 -123 33 -147 16 -13 17 -6 17 123 l0 136 -25 0
-25 0 0 -112z"/>
<path d="M907 824 c-11 -34 -12 -44 -2 -40 8 3 20 -12 31 -37 28 -62 104 -132
171 -157 80 -30 178 -25 250 14 51 28 126 96 107 96 -6 0 -19 -9 -28 -19 -10
-11 -41 -30 -69 -42 -75 -34 -174 -32 -244 4 -57 30 -108 76 -136 125 -17 29
-17 33 -2 38 13 5 10 12 -17 35 -18 15 -36 28 -39 29 -4 0 -13 -21 -22 -46z"/>
<path d="M1068 503 c83 -2 221 -2 305 0 83 1 15 3 -153 3 -168 0 -236 -2 -152
-3z"/>
<path d="M810 380 l0 -50 33 1 c30 2 30 2 5 6 -16 2 -28 11 -28 19 0 8 11 14
28 15 l27 1 -25 7 c-14 4 -25 13 -25 21 0 8 11 17 25 21 23 6 22 7 -7 8 -33 1
-33 1 -33 -49z"/>
<path d="M1292 380 c0 -36 2 -47 7 -31 9 34 31 39 31 7 0 -14 5 -26 11 -26 6
0 9 14 7 33 -2 26 -7 32 -25 30 -15 -2 -23 4 -26 20 -2 12 -4 -3 -5 -33z"/>
<path d="M900 385 c-20 -24 -8 -50 25 -52 20 -1 23 0 8 4 -30 6 -32 43 -2 43
11 0 17 5 14 10 -9 14 -31 12 -45 -5z"/>
<path d="M970 385 c-19 -23 -8 -50 22 -53 19 -2 28 2 33 18 12 39 -29 66 -55
35z m40 -25 c0 -23 -25 -27 -33 -6 -7 16 1 26 20 26 7 0 13 -9 13 -20z"/>
<path d="M1051 360 c1 -31 2 -32 8 -10 10 36 38 38 44 3 4 -22 5 -20 3 7 -1
31 -4 35 -28 35 -26 1 -28 -2 -27 -35z"/>
<path d="M1142 391 c-8 -4 -12 -19 -10 -32 4 -33 53 -40 63 -9 11 36 -22 61
-53 41z m38 -31 c0 -11 -6 -20 -14 -20 -18 0 -29 16 -21 30 11 18 35 11 35
-10z"/>
<path d="M1220 385 c-19 -23 -3 -55 28 -54 26 0 26 1 5 9 -29 12 -30 40 -2 40
11 0 17 5 14 10 -9 14 -31 12 -45 -5z"/>
<path d="M1380 390 c-12 -8 -10 -10 10 -10 l25 -1 -23 -10 c-30 -12 -23 -33
11 -37 24 -3 27 0 27 26 0 18 -6 32 -16 36 -19 7 -16 8 -34 -4z m30 -40 c0 -5
-4 -10 -10 -10 -5 0 -10 5 -10 10 0 6 5 10 10 10 6 0 10 -4 10 -10z"/>
<path d="M1468 393 c-19 -5 -26 -63 -8 -63 6 0 10 11 10 25 0 16 6 25 15 25 9
0 15 -9 15 -25 0 -14 5 -25 10 -25 14 0 13 43 -2 58 -7 7 -14 11 -17 11 -4 -1
-14 -3 -23 -6z"/>
<path d="M1538 383 c-16 -20 2 -48 31 -47 11 0 21 -3 21 -8 0 -8 -14 -11 -40
-9 -12 1 -12 -1 2 -9 29 -18 48 -1 48 44 0 37 -3 41 -25 42 -13 1 -30 -5 -37
-13z m47 -23 c0 -22 -29 -18 -33 3 -3 14 1 18 15 15 10 -2 18 -10 18 -18z"/>
<path d="M1630 385 c-19 -23 -3 -55 28 -54 24 2 24 2 5 6 -31 6 -29 23 2 23
23 0 24 2 15 20 -13 24 -33 26 -50 5z m35 -5 c3 -5 -1 -10 -10 -10 -9 0 -13 5
-10 10 3 6 8 10 10 10 2 0 7 -4 10 -10z"/>
</g>
</svg>
